<?xml version="1.0" encoding="UTF-8"?>
<svg id="Layer_1" data-name="Layer 1" xmlns="http://www.w3.org/2000/svg" viewBox="0 0 32 32">
  <defs>
    <style>
      .cls-1 {
        fill: #045fc6;
      }

      .cls-2 {
        fill: #fff;
      }

      .cls-3 {
        opacity: .78;
      }

      .cls-4 {
        fill: #42c2cb;
      }
    </style>
  </defs>
  <rect class="cls-1" x="0" y="0" width="32" height="32" rx="10.03" ry="10.03"/>
  <g>
    <path class="cls-4" d="M12.82,20.3c-.56.76-1.03,1.46-1.43,2.1-.08.14-.15.29-.23.43-.58-.34-1.02-.76-1.32-1.28-.37-.64-.58-1.37-.61-2.18-.03-.82.05-1.67.23-2.56.18-.92.34-1.74.48-2.46.14-.73.28-1.43.41-2.1.13-.68.27-1.38.41-2.09.14-.72.3-1.54.48-2.47l2.11.02c.59-.01.97.15,1.14.5.17.35.2.81.09,1.39l-.88,4.23c.3-.3.65-.55,1.04-.76.39-.21.8-.37,1.22-.48.09-.03.18-.05.28-.07-.11.14-.21.28-.32.42-.39.52-.76,1.02-1.1,1.52-.47.68-.9,1.33-1.3,1.96-.22.35-.43.7-.63,1.04,0,0,0,0,0,.01,0,.02-.01.04-.01.06,0,.06.05.12.11.12,0,0,0,0,.01,0s0,0,.01,0h1.66c.07,0,.12.05.12.12,0,.02,0,.05-.02.07,0,0,0,0,0,0,0,0,0,.01-.01.02-.74.88-1.38,1.7-1.94,2.45Z"/>
    <path class="cls-4" d="M22.76,15.97c-.35,3.71-1.74,5.26-2.37,5.83-.63.58-1.4,1.01-2.3,1.29-.9.29-1.99.44-3.27.47-.71.01-1.35-.03-1.91-.12-.16-.03-.33-.06-.48-.1-.11-.03-.22-.06-.33-.09.22-.26.46-.52.71-.79.58-.62,1.24-1.28,2-1.96.73-.66,1.55-1.34,2.47-2.03.37-.28.75-.56,1.15-.84.21-.15.42-.29.63-.44.28-.19.56-.38.85-.56,0,0,0,0,.01,0,.03-.02.05-.06.05-.1,0-.07-.05-.12-.12-.12h-2.64s.04-.04.06-.07c.56-.58,1.15-1.18,1.78-1.79.21-.2.42-.41.64-.61.1-.09.19-.18.29-.27.31-.29.63-.58.95-.88.26.12.48.26.68.42.14.11.27.24.38.37.1.12.19.25.27.39.31.53.54,1.21.47,2.01Z"/>
    <g class="cls-3">
      <path class="cls-2" d="M21.6,17.1c-1.16.51-6.06,2.81-9.17,6.25-.11-.03-.22-.06-.33-.09.22-.26.46-.52.71-.79.58-.62,1.24-1.28,2-1.96.73-.66,1.55-1.34,2.47-2.03.37-.28.75-.56,1.15-.84.21-.15.42-.29.63-.44.28-.19.56-.38.85-.56,0,0,0,0,.01,0,.03-.02.05-.06.05-.1,0-.07-.05-.12-.12-.12h-2.64s.04-.04.06-.07c.56-.58,1.15-1.18,1.78-1.79.21-.2.42-.41.64-.61.1-.09.19-.18.29-.27.31-.29.63-.58.95-.88.26.12.48.26.68.42.14.11.27.24.38.37-1.89.85-3.75,2.83-3.75,2.83h1.67l1.66.49c.09.04.1.17,0,.21Z"/>
    </g>
  </g>
</svg>