<?xml version="1.0" encoding="UTF-8"?>
<svg version="1.1" xmlns="http://www.w3.org/2000/svg" width="512" height="512">
<path d="M0 0 C168.96 0 337.92 0 512 0 C512 168.96 512 337.92 512 512 C343.04 512 174.08 512 0 512 C0 343.04 0 174.08 0 0 Z " fill="#045FC6" transform="translate(0,0)"/>
<path d="M0 0 C5.38937415 -0.07464507 10.77844152 -0.12883434 16.16821289 -0.16479492 C17.99834441 -0.17979997 19.82844046 -0.20021059 21.65844727 -0.22631836 C24.30233558 -0.26306906 26.94574492 -0.27980937 29.58984375 -0.29296875 C30.79978249 -0.31619453 30.79978249 -0.31619453 32.03416443 -0.33988953 C38.74497602 -0.34183872 45.42641974 0.55839821 50.4375 5.3125 C57.03622917 16.66231418 53.98563947 30.20267272 51.4375 42.375 C51.17011561 43.70212103 50.90369893 45.02943736 50.63818359 46.35693359 C49.18221353 53.57200969 47.62509512 60.76479486 46.04296875 67.953125 C45.80213814 69.04791672 45.80213814 69.04791672 45.55644226 70.16482544 C44.77725268 73.69763503 43.98920205 77.22809979 43.18530273 80.75537109 C42.89985596 82.02461426 42.61440918 83.29385742 42.3203125 84.6015625 C42.06523926 85.71869629 41.81016602 86.83583008 41.54736328 87.98681641 C41.04664687 90.74321334 40.89030509 93.20829688 41 96 C41.4640625 95.5875 41.928125 95.175 42.40625 94.75 C51.59054488 87.07357443 63.35441633 80.91139592 75 78 C77.234375 78.44140625 77.234375 78.44140625 79 79 C78.4440918 79.7281189 78.4440918 79.7281189 77.87695312 80.47094727 C62.9825981 100.03004291 48.84100785 120.02822299 36 141 C35.54947266 141.73347656 35.09894531 142.46695313 34.63476562 143.22265625 C33.35484828 145.31163084 32.0815071 147.40438254 30.8125 149.5 C30.43746338 150.11746094 30.06242676 150.73492187 29.67602539 151.37109375 C28.16058882 153.90196249 26.93676215 156.18971356 26 159 C35.57 159 45.14 159 55 159 C56 164 56 164 54.734375 165.96484375 C54.07953125 166.61582031 53.4246875 167.26679688 52.75 167.9375 C47.60557837 173.34893313 43.08989206 179.15542014 38.52587891 185.05029297 C36.99992237 187.00009919 35.44722752 188.92543054 33.88671875 190.84765625 C26.16837889 200.4403185 19.18926431 210.44302971 12.375 220.6875 C11.71880173 221.67302856 11.71880173 221.67302856 11.04934692 222.6784668 C9.78685135 224.57870011 8.52892456 226.48184891 7.2734375 228.38671875 C6.90104446 228.94969162 6.52865143 229.51266449 6.14497375 230.09269714 C3.59884704 233.97975243 1.2735082 237.95041362 -1 242 C-11.10762687 238.56484567 -19.33052952 228.61119682 -24.3984375 219.48046875 C-30.36471118 207.1320902 -32.63344649 195.21255546 -32.375 181.5625 C-32.37371094 180.27279297 -32.37242187 178.98308594 -32.37109375 177.65429688 C-32.23327528 162.36410369 -29.48852335 147.53884561 -26.6875 132.5625 C-26.53315491 131.73062164 -26.37880981 130.89874329 -26.2197876 130.04165649 C-23.84638003 117.25087851 -21.2994236 104.50588271 -18.58837891 91.78222656 C-15.47225807 77.04724191 -12.66172859 62.26028599 -10 47.4375 C-8.19559616 37.39236371 -6.32857914 27.36798837 -4.25 17.375 C-4.05148438 16.41650146 -3.85296875 15.45800293 -3.6484375 14.47045898 C-2.61431197 9.58005454 -1.39883565 4.80218081 0 0 Z " fill="#41C1CA" transform="translate(180,123)"/>
<path d="M0 0 C13.00721532 5.10471846 19.84803648 15.60169399 25.26953125 27.79858398 C34.78892162 51.73927032 24.72368606 84.65910916 15.30859375 107.16796875 C13.7069283 110.79364277 11.92582814 114.30948616 10.0703125 117.8125 C9.23886719 119.40964844 9.23886719 119.40964844 8.390625 121.0390625 C4.46589332 128.18315933 -0.25479245 133.98627441 -5.9296875 139.8125 C-6.7340625 140.67875 -7.5384375 141.545 -8.3671875 142.4375 C-34.18604935 166.36717683 -67.84203022 171.97922396 -101.9296875 172.0625 C-102.59834839 172.06450409 -103.26700928 172.06650818 -103.95593262 172.068573 C-116.54884214 172.07775478 -129.87835706 171.82961015 -141.9296875 167.8125 C-140.32585162 163.94496433 -137.70380892 161.18535892 -134.8671875 158.1875 C-133.86006942 157.10994262 -132.85356644 156.03181004 -131.84765625 154.953125 C-131.34927246 154.42009766 -130.85088867 153.88707031 -130.33740234 153.33789062 C-128.40537228 151.24435544 -126.54847129 149.08749126 -124.6796875 146.9375 C-119.12586262 140.75008369 -112.98110555 135.20550792 -106.85839844 129.59277344 C-105.00491209 127.88193515 -103.17121404 126.15262835 -101.34375 124.4140625 C-94.59460356 118.01317994 -87.65412108 112.07885134 -80.27734375 106.4140625 C-77.18463361 104.03397056 -74.21018138 101.53455945 -71.2421875 99 C-59.78506986 89.39423117 -47.46888796 80.83791022 -35.2421875 72.25 C-34.42943359 71.67862305 -33.61667969 71.10724609 -32.77929688 70.51855469 C-28.42941658 67.48371265 -24.05188134 64.61346488 -19.44995117 61.97290039 C-17.6115365 60.79511628 -17.6115365 60.79511628 -16.9296875 57.8125 C-31.1196875 57.8125 -45.3096875 57.8125 -59.9296875 57.8125 C-58.28608383 54.52529267 -57.35825882 52.99164224 -54.89208984 50.53198242 C-54.27739838 49.91421432 -53.66270691 49.29644623 -53.02938843 48.65995789 C-52.3648465 48.00260147 -51.70030457 47.34524506 -51.015625 46.66796875 C-50.32715485 45.97995682 -49.63868469 45.29194489 -48.92935181 44.58308411 C-47.47072767 43.12747932 -46.00967559 41.67430403 -44.54638672 40.22338867 C-42.32859978 38.02371696 -40.11877873 35.81629113 -37.91015625 33.60742188 C-36.48744728 32.18963428 -35.06428419 30.77230219 -33.640625 29.35546875 C-32.98822845 28.70418503 -32.33583191 28.05290131 -31.66366577 27.38188171 C-27.78297201 23.5402632 -23.79483223 19.87609274 -19.65312195 16.31698608 C-17.4506394 14.39431107 -15.40280841 12.34742345 -13.3671875 10.25 C-2.8905172 -0.28085997 -2.8905172 -0.28085997 0 0 Z " fill="#42C1CB" transform="translate(335.9296875,205.1875)"/>
<path d="M0 0 C8.73686561 2.11220927 17.37109608 4.4853638 26 7 C26.33 8.32 26.66 9.64 27 11 C26.32759277 11.30067383 25.65518555 11.60134766 24.96240234 11.91113281 C-4.78627134 25.27303921 -33.64044973 40.72119397 -60.21337891 59.72363281 C-62.04506632 61.0321955 -63.88669272 62.32572568 -65.73046875 63.6171875 C-72.68458426 68.50740571 -79.45377049 73.57166507 -86 79 C-86.98226562 79.80824219 -87.96453125 80.61648438 -88.9765625 81.44921875 C-95.14271278 86.56631652 -101.12405041 91.86466665 -107 97.3125 C-107.62285889 97.88693848 -108.24571777 98.46137695 -108.88745117 99.05322266 C-111.72070385 101.70548225 -114.33227239 104.3392516 -116.73046875 107.39453125 C-119 110 -119 110 -122.3125 110.375 C-123.6428125 110.189375 -123.6428125 110.189375 -125 110 C-123.39616412 106.13246433 -120.77412142 103.37285892 -117.9375 100.375 C-116.93038192 99.29744262 -115.92387894 98.21931004 -114.91796875 97.140625 C-114.41958496 96.60759766 -113.92120117 96.07457031 -113.40771484 95.52539062 C-111.47568478 93.43185544 -109.61878379 91.27499126 -107.75 89.125 C-102.19617512 82.93758369 -96.05141805 77.39300792 -89.92871094 71.78027344 C-88.07522459 70.06943515 -86.24152654 68.34012835 -84.4140625 66.6015625 C-77.66491606 60.20067994 -70.72443358 54.26635134 -63.34765625 48.6015625 C-60.25494611 46.22147056 -57.28049388 43.72205945 -54.3125 41.1875 C-42.85538236 31.58173117 -30.53920046 23.02541022 -18.3125 14.4375 C-17.49974609 13.86612305 -16.68699219 13.29474609 -15.84960938 12.70605469 C-11.49972908 9.67121265 -7.12219384 6.80096488 -2.52026367 4.16040039 C-0.681849 2.98261628 -0.681849 2.98261628 0 0 Z " fill="#D0EFF2" transform="translate(319,263)"/>
<path d="M0 0 C5.68304755 2.24976179 11.04841599 6.26447976 15.08203125 10.82421875 C14.08203125 13.82421875 14.08203125 13.82421875 11.37109375 15.375 C10.15145621 15.96579659 8.92994211 16.55272785 7.70703125 17.13671875 C-6.22549175 24.1771529 -18.61090456 34.13701252 -29.91796875 44.82421875 C-31.9808949 46.62974544 -34.05580914 48.41722207 -36.15234375 50.18359375 C-37.94917285 51.7441889 -37.94917285 51.7441889 -39.18359375 53.58984375 C-40.69294132 55.63414995 -41.63460372 56.64883343 -43.91796875 57.82421875 C-49.30072243 58.33253048 -54.5296315 58.16978907 -59.91796875 57.82421875 C-58.59313794 54.88892526 -57.15652213 52.81384457 -54.88037109 50.54370117 C-54.26567963 49.92593307 -53.65098816 49.30816498 -53.01766968 48.67167664 C-52.35312775 48.01432022 -51.68858582 47.35696381 -51.00390625 46.6796875 C-50.3154361 45.99167557 -49.62696594 45.30366364 -48.91763306 44.59480286 C-47.45900892 43.13919807 -45.99795684 41.68602278 -44.53466797 40.23510742 C-42.31688103 38.03543571 -40.10705998 35.82800988 -37.8984375 33.61914062 C-36.47572853 32.20135303 -35.05256544 30.78402094 -33.62890625 29.3671875 C-32.9765097 28.71590378 -32.32411316 28.06462006 -31.65194702 27.39360046 C-27.77125326 23.55198195 -23.78311348 19.88781149 -19.6414032 16.32870483 C-17.43892065 14.40602982 -15.39108966 12.3591422 -13.35546875 10.26171875 C-2.8836308 -0.26428388 -2.8836308 -0.26428388 0 0 Z " fill="#D1F0F2" transform="translate(335.91796875,205.17578125)"/>
</svg>
